<svg width="1175" height="596" viewBox="0 0 1175 596" fill="none" xmlns="http://www.w3.org/2000/svg">
<path d="M117.038 -5.93756C118.79 -6.73564 120.748 -5.33868 120.564 -3.42304L118.572 17.2659C118.387 19.1815 116.198 20.1791 114.631 19.0616L97.7102 6.99187C96.1434 5.87431 96.374 3.47976 98.1252 2.68168L117.038 -5.93756Z" stroke="black" stroke-opacity="0.1"/>
<path d="M441.038 82.0624C442.79 81.2644 444.748 82.6613 444.564 84.577L442.572 105.266C442.387 107.182 440.198 108.179 438.631 107.062L421.71 94.9919C420.143 93.8743 420.374 91.4798 422.125 90.6817L441.038 82.0624Z" stroke="black" stroke-opacity="0.1"/>
<path d="M113.038 67.0624C114.79 66.2644 116.748 67.6613 116.564 69.577L114.572 90.2659C114.387 92.1815 112.198 93.1791 110.631 92.0616L93.7102 79.9919C92.1434 78.8743 92.374 76.4798 94.1252 75.6817L113.038 67.0624Z" stroke="black" stroke-opacity="0.1"/>
<path d="M158.038 147.062C159.79 146.264 161.748 147.661 161.564 149.577L159.572 170.266C159.387 172.182 157.198 173.179 155.631 172.062L138.71 159.992C137.143 158.874 137.374 156.48 139.125 155.682L158.038 147.062Z" stroke="black" stroke-opacity="0.1"/>
<path d="M318.038 82.0624C319.79 81.2644 321.748 82.6613 321.564 84.577L319.572 105.266C319.387 107.182 317.198 108.179 315.631 107.062L298.71 94.9919C297.143 93.8743 297.374 91.4798 299.125 90.6817L318.038 82.0624Z" stroke="black" stroke-opacity="0.1"/>
<rect x="167.5" y="31.5" width="19" height="19" rx="2.5" stroke="black" stroke-opacity="0.1"/>
<rect x="277.5" y="174.5" width="19" height="19" rx="2.5" stroke="black" stroke-opacity="0.1"/>
<rect x="239.5" y="-13.5" width="19" height="19" rx="2.5" stroke="black" stroke-opacity="0.1"/>
<rect x="219.5" y="123.5" width="19" height="19" rx="2.5" stroke="black" stroke-opacity="0.1"/>
<rect x="353.5" y="44.5" width="19" height="19" rx="2.5" stroke="black" stroke-opacity="0.1"/>
<rect x="400.5" y="0.5" width="19" height="19" rx="2.5" stroke="black" stroke-opacity="0.1"/>
<circle cx="246.5" cy="77.5" r="12" stroke="black" stroke-opacity="0.1"/>
<circle cx="299.5" cy="28.5" r="12" stroke="black" stroke-opacity="0.1"/>
<circle cx="365.5" cy="142.5" r="12" stroke="black" stroke-opacity="0.1"/>
<path d="M92.0384 199.062C93.7897 198.264 95.7481 199.661 95.5637 201.577L93.5715 222.266C93.3871 224.182 91.1981 225.179 89.6313 224.062L72.7102 211.992C71.1434 210.874 71.374 208.48 73.1252 207.682L92.0384 199.062Z" stroke="black" stroke-opacity="0.1"/>
<path d="M416.038 287.062C417.79 286.264 419.748 287.661 419.564 289.577L417.572 310.266C417.387 312.182 415.198 313.179 413.631 312.062L396.71 299.992C395.143 298.874 395.374 296.48 397.125 295.682L416.038 287.062Z" stroke="black" stroke-opacity="0.1"/>
<path d="M88.0384 272.062C89.7897 271.264 91.7481 272.661 91.5637 274.577L89.5715 295.266C89.3871 297.182 87.1981 298.179 85.6313 297.062L68.7102 284.992C67.1434 283.874 67.374 281.48 69.1252 280.682L88.0384 272.062Z" stroke="black" stroke-opacity="0.1"/>
<path d="M133.038 352.062C134.79 351.264 136.748 352.661 136.564 354.577L134.572 375.266C134.387 377.182 132.198 378.179 130.631 377.062L113.71 364.992C112.143 363.874 112.374 361.48 114.125 360.682L133.038 352.062Z" stroke="black" stroke-opacity="0.1"/>
<path d="M293.038 287.062C294.79 286.264 296.748 287.661 296.564 289.577L294.572 310.266C294.387 312.182 292.198 313.179 290.631 312.062L273.71 299.992C272.143 298.874 272.374 296.48 274.125 295.682L293.038 287.062Z" stroke="black" stroke-opacity="0.1"/>
<rect x="142.5" y="236.5" width="19" height="19" rx="2.5" stroke="black" stroke-opacity="0.1"/>
<rect x="252.5" y="379.5" width="19" height="19" rx="2.5" stroke="black" stroke-opacity="0.1"/>
<rect x="214.5" y="191.5" width="19" height="19" rx="2.5" stroke="black" stroke-opacity="0.1"/>
<rect x="194.5" y="328.5" width="19" height="19" rx="2.5" stroke="black" stroke-opacity="0.1"/>
<rect x="328.5" y="249.5" width="19" height="19" rx="2.5" stroke="black" stroke-opacity="0.1"/>
<rect x="375.5" y="205.5" width="19" height="19" rx="2.5" stroke="black" stroke-opacity="0.1"/>
<circle cx="221.5" cy="282.5" r="12" stroke="black" stroke-opacity="0.1"/>
<circle cx="274.5" cy="233.5" r="12" stroke="black" stroke-opacity="0.1"/>
<circle cx="340.5" cy="347.5" r="12" stroke="black" stroke-opacity="0.1"/>
<path d="M499.038 28.0624C500.79 27.2644 502.748 28.6613 502.564 30.577L500.572 51.2659C500.387 53.1815 498.198 54.1791 496.631 53.0616L479.71 40.9919C478.143 39.8743 478.374 37.4798 480.125 36.6817L499.038 28.0624Z" stroke="black" stroke-opacity="0.1"/>
<path d="M823.038 116.062C824.79 115.264 826.748 116.661 826.564 118.577L824.572 139.266C824.387 141.182 822.198 142.179 820.631 141.062L803.71 128.992C802.143 127.874 802.374 125.48 804.125 124.682L823.038 116.062Z" stroke="black" stroke-opacity="0.1"/>
<path d="M495.038 101.062C496.79 100.264 498.748 101.661 498.564 103.577L496.572 124.266C496.387 126.182 494.198 127.179 492.631 126.062L475.71 113.992C474.143 112.874 474.374 110.48 476.125 109.682L495.038 101.062Z" stroke="black" stroke-opacity="0.1"/>
<path d="M540.038 181.062C541.79 180.264 543.748 181.661 543.564 183.577L541.572 204.266C541.387 206.182 539.198 207.179 537.631 206.062L520.71 193.992C519.143 192.874 519.374 190.48 521.125 189.682L540.038 181.062Z" stroke="black" stroke-opacity="0.1"/>
<path d="M700.038 116.062C701.79 115.264 703.748 116.661 703.564 118.577L701.572 139.266C701.387 141.182 699.198 142.179 697.631 141.062L680.71 128.992C679.143 127.874 679.374 125.48 681.125 124.682L700.038 116.062Z" stroke="black" stroke-opacity="0.1"/>
<rect x="549.5" y="65.5" width="19" height="19" rx="2.5" stroke="black" stroke-opacity="0.1"/>
<rect x="659.5" y="208.5" width="19" height="19" rx="2.5" stroke="black" stroke-opacity="0.1"/>
<rect x="621.5" y="20.5" width="19" height="19" rx="2.5" stroke="black" stroke-opacity="0.1"/>
<rect x="601.5" y="157.5" width="19" height="19" rx="2.5" stroke="black" stroke-opacity="0.1"/>
<rect x="735.5" y="78.5" width="19" height="19" rx="2.5" stroke="black" stroke-opacity="0.1"/>
<rect x="782.5" y="34.5" width="19" height="19" rx="2.5" stroke="black" stroke-opacity="0.1"/>
<circle cx="628.5" cy="111.5" r="12" stroke="black" stroke-opacity="0.1"/>
<circle cx="681.5" cy="62.5" r="12" stroke="black" stroke-opacity="0.1"/>
<circle cx="747.5" cy="176.5" r="12" stroke="black" stroke-opacity="0.1"/>
<path d="M887.038 -15.9376C888.79 -16.7356 890.748 -15.3387 890.564 -13.423L888.572 7.26589C888.387 9.18152 886.198 10.1791 884.631 9.06156L867.71 -3.00813C866.143 -4.12569 866.374 -6.52024 868.125 -7.31832L887.038 -15.9376Z" stroke="black" stroke-opacity="0.1"/>
<path d="M883.038 57.0624C884.79 56.2644 886.748 57.6613 886.564 59.577L884.572 80.2659C884.387 82.1815 882.198 83.1791 880.631 82.0616L863.71 69.9919C862.143 68.8743 862.374 66.4798 864.125 65.6817L883.038 57.0624Z" stroke="black" stroke-opacity="0.1"/>
<path d="M928.038 137.062C929.79 136.264 931.748 137.661 931.564 139.577L929.572 160.266C929.387 162.182 927.198 163.179 925.631 162.062L908.71 149.992C907.143 148.874 907.374 146.48 909.125 145.682L928.038 137.062Z" stroke="black" stroke-opacity="0.1"/>
<path d="M1088.04 72.0624C1089.79 71.2644 1091.75 72.6613 1091.56 74.577L1089.57 95.2659C1089.39 97.1815 1087.2 98.1791 1085.63 97.0616L1068.71 84.9919C1067.14 83.8743 1067.37 81.4798 1069.13 80.6817L1088.04 72.0624Z" stroke="black" stroke-opacity="0.1"/>
<rect x="937.5" y="21.5" width="19" height="19" rx="2.5" stroke="black" stroke-opacity="0.1"/>
<rect x="1047.5" y="164.5" width="19" height="19" rx="2.5" stroke="black" stroke-opacity="0.1"/>
<rect x="989.5" y="113.5" width="19" height="19" rx="2.5" stroke="black" stroke-opacity="0.1"/>
<rect x="1123.5" y="34.5" width="19" height="19" rx="2.5" stroke="black" stroke-opacity="0.1"/>
<rect x="1170.5" y="-9.5" width="19" height="19" rx="2.5" stroke="black" stroke-opacity="0.1"/>
<circle cx="1016.5" cy="67.5" r="12" stroke="black" stroke-opacity="0.1"/>
<circle cx="1069.5" cy="18.5" r="12" stroke="black" stroke-opacity="0.1"/>
<circle cx="1135.5" cy="132.5" r="12" stroke="black" stroke-opacity="0.1"/>
<path d="M1189.53 361.736C1189.58 363.659 1187.53 364.916 1185.84 363.998L1167.57 354.081C1165.88 353.162 1165.82 350.757 1167.46 349.752L1185.18 338.892C1186.82 337.886 1188.94 339.034 1188.99 340.958L1189.53 361.736Z" stroke="black" stroke-opacity="0.1"/>
<rect x="1168.34" y="175.079" width="19" height="19" rx="2.5" transform="rotate(113 1168.34 175.079)" stroke="black" stroke-opacity="0.1"/>
<circle cx="1163.41" cy="268.587" r="12" transform="rotate(113 1163.41 268.587)" stroke="black" stroke-opacity="0.1"/>
<path d="M1092.04 338.062C1093.79 337.264 1095.75 338.661 1095.56 340.577L1093.57 361.266C1093.39 363.182 1091.2 364.179 1089.63 363.062L1072.71 350.992C1071.14 349.874 1071.37 347.48 1073.13 346.682L1092.04 338.062Z" stroke="black" stroke-opacity="0.1"/>
<path d="M1088.04 411.062C1089.79 410.264 1091.75 411.661 1091.56 413.577L1089.57 434.266C1089.39 436.182 1087.2 437.179 1085.63 436.062L1068.71 423.992C1067.14 422.874 1067.37 420.48 1069.13 419.682L1088.04 411.062Z" stroke="black" stroke-opacity="0.1"/>
<path d="M1133.04 491.062C1134.79 490.264 1136.75 491.661 1136.56 493.577L1134.57 514.266C1134.39 516.182 1132.2 517.179 1130.63 516.062L1113.71 503.992C1112.14 502.874 1112.37 500.48 1114.13 499.682L1133.04 491.062Z" stroke="black" stroke-opacity="0.1"/>
<rect x="1142.5" y="375.5" width="19" height="19" rx="2.5" stroke="black" stroke-opacity="0.1"/>
<path d="M35.0384 435.062C36.7897 434.264 38.7481 435.661 38.5637 437.577L36.5715 458.266C36.3871 460.182 34.1981 461.179 32.6313 460.062L15.7102 447.992C14.1435 446.874 14.374 444.48 16.1252 443.682L35.0384 435.062Z" stroke="black" stroke-opacity="0.1"/>
<path d="M359.038 523.062C360.79 522.264 362.748 523.661 362.564 525.577L360.572 546.266C360.387 548.182 358.198 549.179 356.631 548.062L339.71 535.992C338.143 534.874 338.374 532.48 340.125 531.682L359.038 523.062Z" stroke="black" stroke-opacity="0.1"/>
<path d="M31.0385 508.062C32.7897 507.264 34.7481 508.661 34.5637 510.577L32.5716 531.266C32.3871 533.182 30.1981 534.179 28.6313 533.062L11.7102 520.992C10.1435 519.874 10.3741 517.48 12.1253 516.682L31.0385 508.062Z" stroke="black" stroke-opacity="0.1"/>
<path d="M236.038 523.062C237.79 522.264 239.748 523.661 239.564 525.577L237.572 546.266C237.387 548.182 235.198 549.179 233.631 548.062L216.71 535.992C215.143 534.874 215.374 532.48 217.125 531.682L236.038 523.062Z" stroke="black" stroke-opacity="0.1"/>
<rect x="85.5" y="472.5" width="19" height="19" rx="2.5" stroke="black" stroke-opacity="0.1"/>
<rect x="157.5" y="427.5" width="19" height="19" rx="2.5" stroke="black" stroke-opacity="0.1"/>
<rect x="271.5" y="485.5" width="19" height="19" rx="2.5" stroke="black" stroke-opacity="0.1"/>
<rect x="318.5" y="441.5" width="19" height="19" rx="2.5" stroke="black" stroke-opacity="0.1"/>
<circle cx="164.5" cy="518.5" r="12" stroke="black" stroke-opacity="0.1"/>
<circle cx="217.5" cy="469.5" r="12" stroke="black" stroke-opacity="0.1"/>
<path d="M565.349 145.353C566.99 146.358 566.927 148.763 565.236 149.681L546.97 159.599C545.278 160.517 543.227 159.26 543.278 157.336L543.822 136.559C543.872 134.635 545.986 133.487 547.627 134.493L565.349 145.353Z" stroke="black" stroke-opacity="0.1"/>
<path d="M673.572 463.17C675.213 464.175 675.15 466.58 673.459 467.498L655.193 477.416C653.502 478.334 651.451 477.077 651.501 475.153L652.045 454.376C652.095 452.452 654.209 451.304 655.85 452.31L673.572 463.17Z" stroke="black" stroke-opacity="0.1"/>
<path d="M502.592 182.858C504.233 183.863 504.17 186.268 502.479 187.186L484.213 197.104C482.522 198.022 480.471 196.765 480.521 194.841L481.065 174.064C481.116 172.14 483.23 170.992 484.871 171.998L502.592 182.858Z" stroke="black" stroke-opacity="0.1"/>
<path d="M461.433 264.9C463.074 265.905 463.011 268.31 461.32 269.228L443.054 279.146C441.363 280.064 439.311 278.807 439.362 276.883L439.906 256.106C439.956 254.182 442.07 253.034 443.711 254.04L461.433 264.9Z" stroke="black" stroke-opacity="0.1"/>
<path d="M604.791 361.198C606.432 362.204 606.369 364.608 604.678 365.527L586.412 375.444C584.721 376.363 582.67 375.106 582.72 373.182L583.264 352.404C583.315 350.48 585.429 349.333 587.07 350.338L604.791 361.198Z" stroke="black" stroke-opacity="0.1"/>
<rect x="562.53" y="208.122" width="19" height="19" rx="2.5" transform="rotate(56 562.53 208.122)" stroke="black" stroke-opacity="0.1"/>
<rect x="505.488" y="379.281" width="19" height="19" rx="2.5" transform="rotate(56 505.488 379.281)" stroke="black" stroke-opacity="0.1"/>
<rect x="640.098" y="242.649" width="19" height="19" rx="2.5" transform="rotate(56 640.098 242.649)" stroke="black" stroke-opacity="0.1"/>
<rect x="515.336" y="302.678" width="19" height="19" rx="2.5" transform="rotate(56 515.336 302.678)" stroke="black" stroke-opacity="0.1"/>
<rect x="655.762" y="369.593" width="19" height="19" rx="2.5" transform="rotate(56 655.762 369.593)" stroke="black" stroke-opacity="0.1"/>
<rect x="718.522" y="383.953" width="19" height="19" rx="2.5" transform="rotate(56 718.522 383.953)" stroke="black" stroke-opacity="0.1"/>
<circle cx="568.57" cy="299.339" r="12" transform="rotate(56 568.57 299.339)" stroke="black" stroke-opacity="0.1"/>
<circle cx="638.83" cy="315.877" r="12" transform="rotate(56 638.83 315.877)" stroke="black" stroke-opacity="0.1"/>
<circle cx="581.227" cy="434.342" r="12" transform="rotate(56 581.227 434.342)" stroke="black" stroke-opacity="0.1"/>
<path d="M737.771 427.988C739.47 427.085 741.51 428.36 741.443 430.283L740.717 451.055C740.65 452.978 738.526 454.108 736.894 453.088L719.268 442.074C717.636 441.054 717.72 438.65 719.419 437.746L737.771 427.988Z" stroke="black" stroke-opacity="0.1"/>
<path d="M1066.54 496.044C1068.24 495.141 1070.28 496.416 1070.21 498.339L1069.49 519.111C1069.42 521.034 1067.29 522.164 1065.66 521.144L1048.04 510.13C1046.4 509.11 1046.49 506.706 1048.19 505.802L1066.54 496.044Z" stroke="black" stroke-opacity="0.1"/>
<path d="M738.235 501.096C739.934 500.193 741.974 501.468 741.907 503.391L741.181 524.163C741.114 526.086 738.99 527.216 737.358 526.196L719.732 515.182C718.1 514.162 718.184 511.758 719.883 510.854L738.235 501.096Z" stroke="black" stroke-opacity="0.1"/>
<path d="M943.768 503.553C945.467 502.65 947.507 503.925 947.44 505.848L946.715 526.62C946.647 528.543 944.523 529.673 942.891 528.653L925.265 517.639C923.633 516.619 923.717 514.215 925.416 513.311L943.768 503.553Z" stroke="black" stroke-opacity="0.1"/>
<rect x="790.423" y="462.276" width="19" height="19" rx="2.5" transform="rotate(-3.5 790.423 462.276)" stroke="black" stroke-opacity="0.1"/>
<rect x="859.542" y="412.964" width="19" height="19" rx="2.5" transform="rotate(-3.5 859.542 412.964)" stroke="black" stroke-opacity="0.1"/>
<rect x="976.87" y="463.896" width="19" height="19" rx="2.5" transform="rotate(-3.5 976.87 463.896)" stroke="black" stroke-opacity="0.1"/>
<rect x="1021.1" y="417.109" width="19" height="19" rx="2.5" transform="rotate(-3.5 1021.1 417.109)" stroke="black" stroke-opacity="0.1"/>
<circle cx="872.084" cy="503.367" r="12" transform="rotate(-3.5 872.084 503.367)" stroke="black" stroke-opacity="0.1"/>
<circle cx="921.994" cy="451.223" r="12" transform="rotate(-3.5 921.994 451.223)" stroke="black" stroke-opacity="0.1"/>
<path d="M641.088 539.981C641.088 541.905 639.005 543.108 637.338 542.146L619.338 531.753C617.672 530.791 617.672 528.386 619.338 527.423L637.338 517.031C639.005 516.069 641.088 517.272 641.088 519.196L641.088 539.981Z" stroke="black" stroke-opacity="0.1"/>
<path d="M555.088 482.981C555.088 484.905 553.005 486.108 551.338 485.146L533.338 474.753C531.672 473.791 531.672 471.386 533.338 470.423L551.338 460.031C553.005 459.069 555.088 460.272 555.088 462.196L555.088 482.981Z" stroke="black" stroke-opacity="0.1"/>
<path d="M432.088 390.981C432.088 392.905 430.005 394.108 428.338 393.146L410.338 382.753C408.672 381.791 408.672 379.385 410.338 378.423L428.338 368.031C430.005 367.069 432.088 368.272 432.088 370.196L432.088 390.981Z" stroke="black" stroke-opacity="0.1"/>
<rect x="495.908" y="434.131" width="19" height="19" rx="2.5" transform="rotate(114.5 495.908 434.131)" stroke="black" stroke-opacity="0.1"/>
<rect x="506.998" y="518.309" width="19" height="19" rx="2.5" transform="rotate(114.5 506.998 518.309)" stroke="black" stroke-opacity="0.1"/>
<rect x="390.627" y="443.297" width="19" height="19" rx="2.5" transform="rotate(114.5 390.627 443.297)" stroke="black" stroke-opacity="0.1"/>
<circle cx="421.289" cy="486.942" r="12" transform="rotate(114.5 421.289 486.942)" stroke="black" stroke-opacity="0.1"/>
<path d="M743.038 200.062C744.79 199.264 746.748 200.661 746.564 202.577L744.572 223.266C744.387 225.182 742.198 226.179 740.631 225.062L723.71 212.992C722.143 211.874 722.374 209.48 724.125 208.682L743.038 200.062Z" stroke="black" stroke-opacity="0.1"/>
<path d="M1067.04 288.062C1068.79 287.264 1070.75 288.661 1070.56 290.577L1068.57 311.266C1068.39 313.182 1066.2 314.179 1064.63 313.062L1047.71 300.992C1046.14 299.874 1046.37 297.48 1048.13 296.682L1067.04 288.062Z" stroke="black" stroke-opacity="0.1"/>
<path d="M739.038 273.062C740.79 272.264 742.748 273.661 742.564 275.577L740.572 296.266C740.387 298.182 738.198 299.179 736.631 298.062L719.71 285.992C718.143 284.874 718.374 282.48 720.125 281.682L739.038 273.062Z" stroke="black" stroke-opacity="0.1"/>
<path d="M784.038 353.062C785.79 352.264 787.748 353.661 787.564 355.577L785.572 376.266C785.387 378.182 783.198 379.179 781.631 378.062L764.71 365.992C763.143 364.874 763.374 362.48 765.125 361.682L784.038 353.062Z" stroke="black" stroke-opacity="0.1"/>
<path d="M944.038 288.062C945.79 287.264 947.748 288.661 947.564 290.577L945.572 311.266C945.387 313.182 943.198 314.179 941.631 313.062L924.71 300.992C923.143 299.874 923.374 297.48 925.125 296.682L944.038 288.062Z" stroke="black" stroke-opacity="0.1"/>
<rect x="793.5" y="237.5" width="19" height="19" rx="2.5" stroke="black" stroke-opacity="0.1"/>
<rect x="903.5" y="380.5" width="19" height="19" rx="2.5" stroke="black" stroke-opacity="0.1"/>
<rect x="865.5" y="192.5" width="19" height="19" rx="2.5" stroke="black" stroke-opacity="0.1"/>
<rect x="845.5" y="329.5" width="19" height="19" rx="2.5" stroke="black" stroke-opacity="0.1"/>
<rect x="979.5" y="250.5" width="19" height="19" rx="2.5" stroke="black" stroke-opacity="0.1"/>
<rect x="1026.5" y="206.5" width="19" height="19" rx="2.5" stroke="black" stroke-opacity="0.1"/>
<circle cx="872.5" cy="283.5" r="12" stroke="black" stroke-opacity="0.1"/>
<circle cx="925.5" cy="234.5" r="12" stroke="black" stroke-opacity="0.1"/>
<circle cx="991.5" cy="348.5" r="12" stroke="black" stroke-opacity="0.1"/>
</svg>
